<?xml version="1.0" encoding="UTF-8" standalone="no"?>
<!-- Created with Inkscape (http://www.inkscape.org/) -->

<svg
   xmlns:dc="http://purl.org/dc/elements/1.1/"
   xmlns:cc="http://creativecommons.org/ns#"
   xmlns:rdf="http://www.w3.org/1999/02/22-rdf-syntax-ns#"
   xmlns:svg="http://www.w3.org/2000/svg"
   xmlns="http://www.w3.org/2000/svg"
   xmlns:sodipodi="http://sodipodi.sourceforge.net/DTD/sodipodi-0.dtd"
   xmlns:inkscape="http://www.inkscape.org/namespaces/inkscape"
   width="370"
   height="370"
   id="svg2"
   version="1.1"
   inkscape:version="0.48.4 r9939"
   sodipodi:docname="lion.svg">
  <defs
     id="defs4" />
  <sodipodi:namedview
     id="base"
     pagecolor="#ffffff"
     bordercolor="#666666"
     borderopacity="1.0"
     inkscape:pageopacity="0.0"
     inkscape:pageshadow="2"
     inkscape:zoom="0.78135574"
     inkscape:cx="600.94891"
     inkscape:cy="227.29832"
     inkscape:document-units="px"
     inkscape:current-layer="layer1"
     showgrid="false"
     inkscape:window-width="1200"
     inkscape:window-height="705"
     inkscape:window-x="-8"
     inkscape:window-y="-8"
     inkscape:window-maximized="1"
     fit-margin-top="0"
     fit-margin-left="0"
     fit-margin-right="0"
     fit-margin-bottom="0" />
  <metadata
     id="metadata7">
    <rdf:RDF>
      <cc:Work
         rdf:about="">
        <dc:format>image/svg+xml</dc:format>
        <dc:type
           rdf:resource="http://purl.org/dc/dcmitype/StillImage" />
        <dc:title></dc:title>
      </cc:Work>
    </rdf:RDF>
  </metadata>
  <g
     inkscape:label="Livello 1"
     inkscape:groupmode="layer"
     id="layer1"
     transform="translate(-163,-303)">
    <g
       id="g3850"
       transform="matrix(2.0406408,0,0,2.0406408,-559.98536,-217.99102)">
      <!-- <path
         d="m 406.42669,460.9848 c 0,1.37539 -1.26364,2.49036 -2.82241,2.49036 -1.55877,0 -2.82241,-1.11497 -2.82241,-2.49036 0,-1.37539 1.26364,-2.49036 2.82241,-2.49036 1.55877,0 2.82241,1.11497 2.82241,2.49036 z"
         sodipodi:ry="2.4903595"
         sodipodi:rx="2.8224075"
         sodipodi:cy="460.9848"
         sodipodi:cx="403.60428"
         id="path3809"
         style="fill:#ffffff;fill-opacity:1;stroke:#000000;stroke-width:2;stroke-linecap:round;stroke-linejoin:round;stroke-miterlimit:4;stroke-opacity:1;stroke-dasharray:none"
         sodipodi:type="arc" />
      <path
         transform="translate(24.571548,7.6371026)"
         sodipodi:type="arc"
         style="fill:#ffffff;fill-opacity:1;stroke:#000000;stroke-width:2;stroke-linecap:round;stroke-linejoin:round;stroke-miterlimit:4;stroke-opacity:1;stroke-dasharray:none"
         id="path3811"
         sodipodi:cx="403.60428"
         sodipodi:cy="460.9848"
         sodipodi:rx="2.8224075"
         sodipodi:ry="2.4903595"
         d="m 406.42669,460.9848 c 0,1.37539 -1.26364,2.49036 -2.82241,2.49036 -1.55877,0 -2.82241,-1.11497 -2.82241,-2.49036 0,-1.37539 1.26364,-2.49036 2.82241,-2.49036 1.55877,0 2.82241,1.11497 2.82241,2.49036 z" />
      <path
         d="m 406.42669,460.9848 c 0,1.37539 -1.26364,2.49036 -2.82241,2.49036 -1.55877,0 -2.82241,-1.11497 -2.82241,-2.49036 0,-1.37539 1.26364,-2.49036 2.82241,-2.49036 1.55877,0 2.82241,1.11497 2.82241,2.49036 z"
         sodipodi:ry="2.4903595"
         sodipodi:rx="2.8224075"
         sodipodi:cy="460.9848"
         sodipodi:cx="403.60428"
         id="path3813"
         style="fill:#ffffff;fill-opacity:1;stroke:#000000;stroke-width:2;stroke-linecap:round;stroke-linejoin:round;stroke-miterlimit:4;stroke-opacity:1;stroke-dasharray:none"
         sodipodi:type="arc"
         transform="translate(44.660448,7.1390307)" />
      <path
         transform="translate(56.116102,5.478791)"
         sodipodi:type="arc"
         style="fill:#ffffff;fill-opacity:1;stroke:#000000;stroke-width:2;stroke-linecap:round;stroke-linejoin:round;stroke-miterlimit:4;stroke-opacity:1;stroke-dasharray:none"
         id="path3815"
         sodipodi:cx="403.60428"
         sodipodi:cy="460.9848"
         sodipodi:rx="2.8224075"
         sodipodi:ry="2.4903595"
         d="m 406.42669,460.9848 c 0,1.37539 -1.26364,2.49036 -2.82241,2.49036 -1.55877,0 -2.82241,-1.11497 -2.82241,-2.49036 0,-1.37539 1.26364,-2.49036 2.82241,-2.49036 1.55877,0 2.82241,1.11497 2.82241,2.49036 z" /> -->
      <!-- <path
         d="m 406.42669,460.9848 c 0,1.37539 -1.26364,2.49036 -2.82241,2.49036 -1.55877,0 -2.82241,-1.11497 -2.82241,-2.49036 0,-1.37539 1.26364,-2.49036 2.82241,-2.49036 1.55877,0 2.82241,1.11497 2.82241,2.49036 z"
         sodipodi:ry="2.4903595"
         sodipodi:rx="2.8224075"
         sodipodi:cy="460.9848"
         sodipodi:cx="403.60428"
         id="path3817"
         style="fill:#ffffff;fill-opacity:1;stroke:#000000;stroke-width:2;stroke-linecap:round;stroke-linejoin:round;stroke-miterlimit:4;stroke-opacity:1;stroke-dasharray:none"
         sodipodi:type="arc"
         transform="translate(82.513913,7.1390307)" />
      <path
         transform="translate(101.44064,-4.6486712)"
         sodipodi:type="arc"
         style="fill:#ffffff;fill-opacity:1;stroke:#000000;stroke-width:2;stroke-linecap:round;stroke-linejoin:round;stroke-miterlimit:4;stroke-opacity:1;stroke-dasharray:none"
         id="path3819"
         sodipodi:cx="403.60428"
         sodipodi:cy="460.9848"
         sodipodi:rx="2.8224075"
         sodipodi:ry="2.4903595"
         d="m 406.42669,460.9848 c 0,1.37539 -1.26364,2.49036 -2.82241,2.49036 -1.55877,0 -2.82241,-1.11497 -2.82241,-2.49036 0,-1.37539 1.26364,-2.49036 2.82241,-2.49036 1.55877,0 2.82241,1.11497 2.82241,2.49036 z" /> -->
      <!-- <path
         inkscape:connector-curvature="0"
         d="m 540.07104,285.72543 c -2.34731,2.8566 -5.24812,4.86944 -7.88377,7.26976 -0.92043,0.83825 -1.81715,1.71616 -2.72572,2.57424 -3.37682,3.306 -6.46302,7.06986 -8.65731,11.70733 -1.37541,2.90682 -1.6276,3.9969 -2.65513,7.12094 -1.60978,5.86117 -2.71851,12.09796 -2.00632,18.31819 0.15092,1.31816 0.43809,2.6065 0.65713,3.90976 2.39025,11.42346 8.10812,20.91773 13.71519,30.1899 3.7131,6.20818 7.77697,12.15611 10.762,18.98661 1.66416,3.80804 1.69947,4.37505 2.84938,8.32856 1.32307,5.5448 1.22269,11.19827 -0.4275,16.62663 -1.20101,3.95076 -1.9147,4.89209 -3.7617,8.41689 -3.19784,4.98842 -7.10948,9.08145 -11.95814,11.32877 -3.67807,1.70478 -5.38633,1.80864 -9.33531,2.64337 -1.91422,0.13225 -3.8255,0.40319 -5.74265,0.39675 -10.12583,-0.034 -20.14748,-2.87225 -29.9086,-5.94927 -0.0531,-0.0323 0.31335,-0.96901 0.36652,-0.93672 l 0,0 c 7.66786,2.27359 15.38155,4.38164 23.24097,5.33334 2.00897,0.24327 4.02442,0.45609 6.04272,0.48609 1.89503,0.0281 3.78667,-0.20788 5.68001,-0.31182 3.85196,-0.7479 5.61917,-0.83881 9.21666,-2.44254 4.76888,-2.1259 8.58076,-6.13201 11.72251,-10.99438 1.82653,-3.44864 2.50818,-4.33161 3.71132,-8.19455 1.64171,-5.27109 1.76791,-10.7406 0.45082,-16.13664 -1.15254,-3.87433 -1.19202,-4.43218 -2.84764,-8.16596 -3.00941,-6.78689 -7.11008,-12.66388 -10.81742,-18.84802 -5.66003,-9.37724 -11.32754,-19.03838 -13.66942,-30.60494 -0.21628,-1.33667 -0.49964,-2.65918 -0.64884,-4.01 -0.6996,-6.3339 0.38954,-12.6852 2.02797,-18.65752 1.05411,-3.19716 1.30116,-4.27254 2.7076,-7.2506 2.22528,-4.71192 5.33036,-8.57004 8.76163,-11.93095 0.91887,-0.85947 1.82349,-1.7431 2.75661,-2.57841 2.62834,-2.35287 5.50774,-4.28951 7.93819,-6.97227 0.0197,-0.0386 0.45796,0.30886 0.43824,0.34746 z"
         id="path3846"
         style="fill:#ffffff;fill-opacity:1;stroke:#000000;stroke-width:2.34347582;stroke-linecap:round;stroke-linejoin:round;stroke-miterlimit:4;stroke-opacity:1;stroke-dasharray:none" />
      <path
         sodipodi:nodetypes="cssssssccsssssscc"
         inkscape:connector-curvature="0"
         id="path3848"
         d="m 557.77179,271.96359 c 0,0 -0.25205,-0.11671 -0.70096,-0.28603 -0.44891,-0.16937 -1.0947,-0.39127 -1.88216,-0.60176 -0.78746,-0.21048 -1.71661,-0.40949 -2.73226,-0.533 -1.01564,-0.1235 -2.11779,-0.17149 -3.25125,-0.0799 -1.13346,0.0916 -2.29824,0.32288 -3.43916,0.75779 -1.14092,0.43493 -2.25798,1.07353 -3.29599,1.9799 -1.03801,0.90637 -2.83319,2.68865 -3.65792,4.19461 -0.76222,2.17939 -1.72778,3.90241 -0.78515,5.73941 0.25949,0.46898 0.64299,1.10583 1.13905,1.77732 0.49605,0.67149 1.10464,1.37763 1.81431,1.9852 0.70966,0.60756 1.5204,1.11654 2.42073,1.39371 0.90034,0.2772 1.89027,0.32259 2.95835,0.003 1.06806,-0.31967 2.21426,-1.00438 3.42712,-2.18735 1.21285,-1.18296 2.49237,-2.8642 3.82707,-5.17692 1.33471,-2.31271 2.7246,-5.25693 4.15821,-8.96586 z"
         style="fill:#e1830f;fill-opacity:1;stroke:#000000;stroke-width:1px;stroke-linecap:butt;stroke-linejoin:miter;stroke-opacity:1" /> -->
      <!-- <path
         sodipodi:nodetypes="cccccccccccsccc"
         inkscape:connector-curvature="0"
         id="path3807"
         d="m 418.60451,409.09589 -4.12644,27.9681 c 0,0 -17.00112,-1.3296 -14.94867,14.15936 0.69685,6.24202 3.23169,9.62951 8.35312,11.13031 2.81066,0.78438 6.46993,1.01517 10.72199,-0.53103 0,0 8.25288,11.92083 19.71522,0.91699 0,0 8.71137,13.29631 15.58878,-2.75096 l -2.29247,-44.93236 2.29247,44.93236 c 0,0 9.62836,14.67179 19.25672,2.75096 0,0 13.7548,11.00384 19.25672,-2.29247 0,0 7.83903,0.15937 11.11616,-3.44337 3.07083,-3.37596 2.01455,-10.29823 -9.74068,-16.73034 l -15.58877,-34.38701 z"
         style="fill:#ffeeaa;fill-opacity:1;stroke:#000000;stroke-width:2;stroke-linecap:butt;stroke-linejoin:miter;stroke-opacity:1" /> -->
      <path
         transform="matrix(0.93786222,-0.04953818,0.04953818,0.93786222,10.19519,39.842694)"
         inkscape:transform-center-y="-0.47012963"
         inkscape:transform-center-x="-0.49107271"
         d="m 373.33138,287.19239 24.81131,-2.08073 6.64025,-20.80528 23.51257,8.19083 14.52845,-16.30574 18.14828,17.04612 19.90454,-8.98679 9.646,22.95398 21.83896,-0.11393 -0.52416,24.89288 19.99721,8.77863 -10.60369,22.52758 14.69778,16.15328 -18.84975,16.26706 6.85696,20.73487 -23.83651,7.19382 -2.16949,21.73123 -24.70173,-3.12331 -10.82081,18.97006 -21.29579,-12.90038 -17.60112,12.92879 -14.20761,-20.44686 -21.33804,4.65201 -4.66281,-24.45789 -21.38541,-4.42914 5.68823,-24.23993 -17.73505,-12.74445 15.05572,-19.83067 -11.01814,-18.85613 21.81995,-11.9925 z"
         inkscape:randomized="0"
         inkscape:rounded="0"
         inkscape:flatsided="false"
         sodipodi:arg2="-2.1764611"
         sodipodi:arg1="-2.4092847"
         sodipodi:r2="78.603371"
         sodipodi:r1="93.541924"
         sodipodi:cy="349.73337"
         sodipodi:cx="442.89227"
         sodipodi:sides="15"
         id="path2996"
         style="fill:#e1830f;fill-opacity:1;stroke:#000000;stroke-width:2;stroke-linecap:round;stroke-linejoin:round;stroke-miterlimit:4;stroke-opacity:1;stroke-dasharray:none"
         sodipodi:type="star" />
      <path
         transform="matrix(1.1797827,0,0,1.2074416,-70.25224,-65.868909)"
         d="m 410.98361,326.75912 c 0,4.5819 -4.2858,8.29626 -9.5726,8.29626 -5.2868,0 -9.5726,-3.71436 -9.5726,-8.29626 0,-4.58189 4.2858,-8.29625 9.5726,-8.29625 5.2868,0 9.5726,3.71436 9.5726,8.29625 z"
         sodipodi:ry="8.2962532"
         sodipodi:rx="9.5725994"
         sodipodi:cy="326.75912"
         sodipodi:cx="401.41101"
         id="path3004"
         style="fill:#d38d5f;fill-opacity:1;stroke:#000000;stroke-width:2;stroke-linecap:round;stroke-linejoin:round;stroke-miterlimit:4;stroke-opacity:1;stroke-dasharray:none"
         sodipodi:type="arc" />
      <path
         sodipodi:type="arc"
         style="fill:#d38d5f;fill-opacity:1;stroke:#000000;stroke-width:2;stroke-linecap:round;stroke-linejoin:round;stroke-miterlimit:4;stroke-opacity:1;stroke-dasharray:none"
         id="path3006"
         sodipodi:cx="401.41101"
         sodipodi:cy="326.75912"
         sodipodi:rx="9.5725994"
         sodipodi:ry="8.2962532"
         d="m 410.98361,326.75912 c 0,4.5819 -4.2858,8.29626 -9.5726,8.29626 -5.2868,0 -9.5726,-3.71436 -9.5726,-8.29626 0,-4.58189 4.2858,-8.29625 9.5726,-8.29625 5.2868,0 9.5726,3.71436 9.5726,8.29625 z"
         transform="matrix(1.1797827,0,0,1.2074416,7.74776,-69.868909)" />
      <path
         inkscape:connector-curvature="0"
         id="path3002"
         d="m 449.274,414.82705 c 0,0 -49.77751,-42.75761 -47.86299,-79.13349 0,0 5.74356,-25.52693 41.48126,-26.1651 0,0 35.73771,-2.55269 41.48127,24.88876 0,0 0,31.90866 -10.84895,44.03396 0,0 -21.05973,24.88875 -24.25059,36.37587 z"
         style="fill:#ffeeaa;fill-opacity:1;stroke:#000000;stroke-width:2;stroke-linecap:butt;stroke-linejoin:miter;stroke-opacity:1" />
      <path
         transform="matrix(1.2123449,0,0,1.1225391,-91.320146,-38.881441)"
         d="m 433.31967,324.8446 c 0,1.05736 -0.85716,1.91452 -1.91452,1.91452 -1.05736,0 -1.91452,-0.85716 -1.91452,-1.91452 0,-1.05736 0.85716,-1.91452 1.91452,-1.91452 1.05736,0 1.91452,0.85716 1.91452,1.91452 z"
         sodipodi:ry="1.9145199"
         sodipodi:rx="1.9145199"
         sodipodi:cy="324.8446"
         sodipodi:cx="431.40515"
         id="path3011"
         style="fill:#000000;fill-opacity:1;stroke:#000000;stroke-width:2;stroke-linecap:round;stroke-linejoin:round;stroke-miterlimit:4;stroke-opacity:1;stroke-dasharray:none"
         sodipodi:type="arc" />
      <path
         sodipodi:type="arc"
         style="fill:#000000;fill-opacity:1;stroke:#000000;stroke-width:2;stroke-linecap:round;stroke-linejoin:round;stroke-miterlimit:4;stroke-opacity:1;stroke-dasharray:none"
         id="path3013"
         sodipodi:cx="431.40515"
         sodipodi:cy="324.8446"
         sodipodi:rx="1.9145199"
         sodipodi:ry="1.9145199"
         d="m 433.31967,324.8446 c 0,1.05736 -0.85716,1.91452 -1.91452,1.91452 -1.05736,0 -1.91452,-0.85716 -1.91452,-1.91452 0,-1.05736 0.85716,-1.91452 1.91452,-1.91452 1.05736,0 1.91452,0.85716 1.91452,1.91452 z"
         transform="matrix(1.2123449,0,0,1.1225391,-72.923097,-39.511869)" />
      <path
         inkscape:connector-curvature="0"
         id="path3015"
         d="m 427.83169,321.52364 c 0,0 3.78257,3.61063 6.93471,0.11462"
         style="fill:none;stroke:#000000;stroke-width:1px;stroke-linecap:butt;stroke-linejoin:miter;stroke-opacity:1" />
      <path
         style="fill:none;stroke:#000000;stroke-width:1px;stroke-linecap:butt;stroke-linejoin:miter;stroke-opacity:1"
         d="m 427.83169,321.52364 c 0,0 3.78257,3.61063 6.93471,0.11462"
         id="path3017"
         inkscape:connector-curvature="0" />
      <path
         inkscape:connector-curvature="0"
         id="path3019"
         d="m 445.73639,321.44143 c 0,0 4.48012,2.69683 6.79217,-1.40347"
         style="fill:none;stroke:#000000;stroke-width:1px;stroke-linecap:butt;stroke-linejoin:miter;stroke-opacity:1" />
      <path
         transform="matrix(0.31126698,0,0,0.28820953,317.75516,229.96817)"
         d="m 433.31967,324.8446 c 0,1.05736 -0.85716,1.91452 -1.91452,1.91452 -1.05736,0 -1.91452,-0.85716 -1.91452,-1.91452 0,-1.05736 0.85716,-1.91452 1.91452,-1.91452 1.05736,0 1.91452,0.85716 1.91452,1.91452 z"
         sodipodi:ry="1.9145199"
         sodipodi:rx="1.9145199"
         sodipodi:cy="324.8446"
         sodipodi:cx="431.40515"
         id="path3021"
         style="fill:#ffffff;fill-opacity:1;stroke:#ffffff;stroke-width:2;stroke-linecap:round;stroke-linejoin:round;stroke-miterlimit:4;stroke-opacity:1;stroke-dasharray:none"
         sodipodi:type="arc" />
      <path
         inkscape:transform-center-x="2.0632205"
         sodipodi:type="arc"
         style="fill:#ffffff;fill-opacity:1;stroke:#ffffff;stroke-width:2;stroke-linecap:round;stroke-linejoin:round;stroke-miterlimit:4;stroke-opacity:1;stroke-dasharray:none"
         id="path3023"
         sodipodi:cx="431.40515"
         sodipodi:cy="324.8446"
         sodipodi:rx="1.9145199"
         sodipodi:ry="1.9145199"
         d="m 433.31967,324.8446 c 0,1.05736 -0.85716,1.91452 -1.91452,1.91452 -1.05736,0 -1.91452,-0.85716 -1.91452,-1.91452 0,-1.05736 0.85716,-1.91452 1.91452,-1.91452 1.05736,0 1.91452,0.85716 1.91452,1.91452 z"
         transform="matrix(0.31126698,0,0,0.28820953,299.64645,230.82785)" />
      <path
         sodipodi:type="arc"
         style="fill:#000000;fill-opacity:1;stroke:#000000;stroke-width:2;stroke-linecap:round;stroke-linejoin:round;stroke-miterlimit:4;stroke-opacity:1;stroke-dasharray:none"
         id="path3025"
         sodipodi:cx="431.40515"
         sodipodi:cy="324.8446"
         sodipodi:rx="1.9145199"
         sodipodi:ry="1.9145199"
         d="m 433.31967,324.8446 c 0,1.05736 -0.85716,1.91452 -1.91452,1.91452 -1.05736,0 -1.91452,-0.85716 -1.91452,-1.91452 0,-1.05736 0.85716,-1.91452 1.91452,-1.91452 1.05736,0 1.91452,0.85716 1.91452,1.91452 z"
         transform="matrix(0.87706009,0,0,0.81209089,45.987552,95.20676)" />
      <path
         transform="matrix(0.87706009,0,0,0.81209089,88.675292,95.20676)"
         d="m 433.31967,324.8446 c 0,1.05736 -0.85716,1.91452 -1.91452,1.91452 -1.05736,0 -1.91452,-0.85716 -1.91452,-1.91452 0,-1.05736 0.85716,-1.91452 1.91452,-1.91452 1.05736,0 1.91452,0.85716 1.91452,1.91452 z"
         sodipodi:ry="1.9145199"
         sodipodi:rx="1.9145199"
         sodipodi:cy="324.8446"
         sodipodi:cx="431.40515"
         id="path3027"
         style="fill:#000000;fill-opacity:1;stroke:#000000;stroke-width:2;stroke-linecap:round;stroke-linejoin:round;stroke-miterlimit:4;stroke-opacity:1;stroke-dasharray:none"
         sodipodi:type="arc" />
      <path
         sodipodi:nodetypes="csssc"
         inkscape:connector-curvature="0"
         id="path3029"
         d="m 424.10643,359.1201 c 0,0 -0.19976,6.54185 3.32891,10.98409 3.52866,4.44223 10.78689,6.45983 15.6126,6.63926 7.32156,0.27222 14.01987,-1.75517 17.12544,-4.20883 3.04924,-2.40914 4.68166,-3.72884 7.03143,-13.18527"
         style="fill:none;stroke:#000000;stroke-width:1px;stroke-linecap:butt;stroke-linejoin:miter;stroke-opacity:1" />
      <path
         inkscape:connector-curvature="0"
         id="path3031"
         d="m 443.5924,376.54285 0.4585,-20.86145"
         style="fill:none;stroke:#000000;stroke-width:1px;stroke-linecap:butt;stroke-linejoin:miter;stroke-opacity:1" />
      <path
         sodipodi:nodetypes="sssss"
         inkscape:connector-curvature="0"
         id="path3033"
         d="m 458.03494,339.86336 c 0,6.33047 -8.11207,18.79824 -14.44255,18.79824 -6.33047,0 -16.04726,-10.1753 -16.04726,-16.50577 0,-6.33047 8.11207,-8.94062 14.44254,-8.94062 6.33048,0 16.04727,0.31768 16.04727,6.64815 z"
         style="fill:#000000;fill-opacity:1;stroke:#000000;stroke-width:2;stroke-linecap:round;stroke-linejoin:round;stroke-miterlimit:4;stroke-opacity:1" />
      <path
         sodipodi:nodetypes="sssss"
         inkscape:connector-curvature="0"
         id="path3036"
         d="m 451.84527,337.22705 c 2.38228,0.10207 -2.31749,-1.97468 -7.22126,-2.17785 -5.92343,-0.24541 -6.64183,0.93015 -9.51375,1.03162 0,0 6.41182,-0.11463 9.51375,-0.11463 3.10193,0 3.78863,1.11383 7.22126,1.26086 z"
         style="fill:#ffffff;fill-opacity:1;stroke:#ffffff;stroke-width:2;stroke-linecap:round;stroke-linejoin:round;stroke-miterlimit:4;stroke-opacity:1" />
    </g>
    <g
       style="font-size:160.31719971px;font-style:normal;font-weight:normal;line-height:125%;letter-spacing:0px;word-spacing:0px;fill:#000000;fill-opacity:1;stroke:none;font-family:Sans"
       id="text3829" />
  </g>
</svg>
